<mxfile host="app.diagrams.net" modified="2021-04-12T03:58:55.563Z" agent="5.0 (Windows)" etag="3pVLmV5MpsqO4xI0Xtoz" version="14.5.10" type="github">
  <diagram id="9b7uLELmdbzUbWwN5cIj" name="第 1 页">
    <mxGraphModel dx="3342" dy="733" grid="1" gridSize="10" guides="1" tooltips="1" connect="1" arrows="1" fold="1" page="1" pageScale="1" pageWidth="1920" pageHeight="1200" math="0" shadow="0">
      <root>
        <mxCell id="0" />
        <mxCell id="1" parent="0" />
        <mxCell id="c0HFAmHQshkEXfB8irg5-39" value="" style="whiteSpace=wrap;html=1;" vertex="1" parent="1">
          <mxGeometry x="1110" y="180" width="450" height="450" as="geometry" />
        </mxCell>
        <mxCell id="c0HFAmHQshkEXfB8irg5-27" value="" style="rounded=0;whiteSpace=wrap;html=1;" vertex="1" parent="1">
          <mxGeometry x="320" y="720" width="790" height="760" as="geometry" />
        </mxCell>
        <mxCell id="c0HFAmHQshkEXfB8irg5-5" style="edgeStyle=orthogonalEdgeStyle;rounded=0;orthogonalLoop=1;jettySize=auto;html=1;" edge="1" parent="1" source="c0HFAmHQshkEXfB8irg5-1" target="c0HFAmHQshkEXfB8irg5-4">
          <mxGeometry relative="1" as="geometry" />
        </mxCell>
        <mxCell id="c0HFAmHQshkEXfB8irg5-1" value="业管手动分配" style="rounded=0;whiteSpace=wrap;html=1;fillColor=#dae8fc;strokeColor=#6c8ebf;" vertex="1" parent="1">
          <mxGeometry x="380" y="140" width="120" height="60" as="geometry" />
        </mxCell>
        <mxCell id="c0HFAmHQshkEXfB8irg5-6" style="edgeStyle=orthogonalEdgeStyle;rounded=0;orthogonalLoop=1;jettySize=auto;html=1;entryX=0.5;entryY=0;entryDx=0;entryDy=0;" edge="1" parent="1" source="c0HFAmHQshkEXfB8irg5-2" target="c0HFAmHQshkEXfB8irg5-4">
          <mxGeometry relative="1" as="geometry">
            <mxPoint x="650" y="500" as="targetPoint" />
          </mxGeometry>
        </mxCell>
        <mxCell id="c0HFAmHQshkEXfB8irg5-2" value="MQ消费" style="rounded=0;whiteSpace=wrap;html=1;fillColor=#dae8fc;strokeColor=#6c8ebf;" vertex="1" parent="1">
          <mxGeometry x="590" y="140" width="120" height="60" as="geometry" />
        </mxCell>
        <mxCell id="c0HFAmHQshkEXfB8irg5-7" style="edgeStyle=orthogonalEdgeStyle;rounded=0;orthogonalLoop=1;jettySize=auto;html=1;entryX=0.5;entryY=0;entryDx=0;entryDy=0;" edge="1" parent="1" source="c0HFAmHQshkEXfB8irg5-3" target="c0HFAmHQshkEXfB8irg5-4">
          <mxGeometry relative="1" as="geometry" />
        </mxCell>
        <mxCell id="c0HFAmHQshkEXfB8irg5-3" value="定时任务分配" style="rounded=0;whiteSpace=wrap;html=1;fillColor=#dae8fc;strokeColor=#6c8ebf;" vertex="1" parent="1">
          <mxGeometry x="790" y="140" width="120" height="60" as="geometry" />
        </mxCell>
        <mxCell id="c0HFAmHQshkEXfB8irg5-29" value="" style="edgeStyle=orthogonalEdgeStyle;rounded=0;orthogonalLoop=1;jettySize=auto;html=1;" edge="1" parent="1" source="c0HFAmHQshkEXfB8irg5-4" target="c0HFAmHQshkEXfB8irg5-28">
          <mxGeometry relative="1" as="geometry" />
        </mxCell>
        <mxCell id="c0HFAmHQshkEXfB8irg5-41" style="edgeStyle=orthogonalEdgeStyle;rounded=0;orthogonalLoop=1;jettySize=auto;html=1;" edge="1" parent="1" source="c0HFAmHQshkEXfB8irg5-4" target="c0HFAmHQshkEXfB8irg5-39">
          <mxGeometry relative="1" as="geometry" />
        </mxCell>
        <mxCell id="c0HFAmHQshkEXfB8irg5-4" value="如果非业管手动分配，则根据分配规则获取经办人" style="rounded=0;whiteSpace=wrap;html=1;fillColor=#d5e8d4;strokeColor=#82b366;" vertex="1" parent="1">
          <mxGeometry x="485" y="370" width="330" height="80" as="geometry" />
        </mxCell>
        <mxCell id="c0HFAmHQshkEXfB8irg5-11" style="edgeStyle=orthogonalEdgeStyle;rounded=0;orthogonalLoop=1;jettySize=auto;html=1;entryX=1.004;entryY=0.5;entryDx=0;entryDy=0;entryPerimeter=0;" edge="1" parent="1" source="c0HFAmHQshkEXfB8irg5-8" target="c0HFAmHQshkEXfB8irg5-25">
          <mxGeometry relative="1" as="geometry">
            <mxPoint x="300" y="675" as="targetPoint" />
          </mxGeometry>
        </mxCell>
        <mxCell id="c0HFAmHQshkEXfB8irg5-14" style="edgeStyle=orthogonalEdgeStyle;rounded=0;orthogonalLoop=1;jettySize=auto;html=1;" edge="1" parent="1" source="c0HFAmHQshkEXfB8irg5-8" target="c0HFAmHQshkEXfB8irg5-13">
          <mxGeometry relative="1" as="geometry" />
        </mxCell>
        <mxCell id="c0HFAmHQshkEXfB8irg5-8" value="先删除传入flowCode已经分配了经办人的记录" style="rounded=0;whiteSpace=wrap;html=1;fillColor=#d5e8d4;strokeColor=#82b366;" vertex="1" parent="1">
          <mxGeometry x="590" y="750" width="120" height="60" as="geometry" />
        </mxCell>
        <mxCell id="c0HFAmHQshkEXfB8irg5-16" value="" style="edgeStyle=orthogonalEdgeStyle;rounded=0;orthogonalLoop=1;jettySize=auto;html=1;" edge="1" parent="1" source="c0HFAmHQshkEXfB8irg5-13" target="c0HFAmHQshkEXfB8irg5-15">
          <mxGeometry relative="1" as="geometry" />
        </mxCell>
        <mxCell id="c0HFAmHQshkEXfB8irg5-13" value="是否超过每日分配上限" style="rhombus;whiteSpace=wrap;html=1;" vertex="1" parent="1">
          <mxGeometry x="610" y="870" width="80" height="80" as="geometry" />
        </mxCell>
        <mxCell id="c0HFAmHQshkEXfB8irg5-19" style="edgeStyle=orthogonalEdgeStyle;rounded=0;orthogonalLoop=1;jettySize=auto;html=1;entryX=0.5;entryY=1;entryDx=0;entryDy=0;" edge="1" parent="1" source="c0HFAmHQshkEXfB8irg5-15" target="c0HFAmHQshkEXfB8irg5-18">
          <mxGeometry relative="1" as="geometry" />
        </mxCell>
        <mxCell id="c0HFAmHQshkEXfB8irg5-22" value="" style="edgeStyle=orthogonalEdgeStyle;rounded=0;orthogonalLoop=1;jettySize=auto;html=1;" edge="1" parent="1" source="c0HFAmHQshkEXfB8irg5-15" target="c0HFAmHQshkEXfB8irg5-21">
          <mxGeometry relative="1" as="geometry" />
        </mxCell>
        <mxCell id="c0HFAmHQshkEXfB8irg5-15" value="是否强制分配" style="rhombus;whiteSpace=wrap;html=1;" vertex="1" parent="1">
          <mxGeometry x="610" y="1030" width="80" height="80" as="geometry" />
        </mxCell>
        <mxCell id="c0HFAmHQshkEXfB8irg5-17" value="Y" style="text;html=1;align=center;verticalAlign=middle;resizable=0;points=[];autosize=1;strokeColor=none;" vertex="1" parent="1">
          <mxGeometry x="660" y="970" width="20" height="20" as="geometry" />
        </mxCell>
        <mxCell id="c0HFAmHQshkEXfB8irg5-18" value="结束" style="whiteSpace=wrap;html=1;" vertex="1" parent="1">
          <mxGeometry x="400" y="910" width="120" height="60" as="geometry" />
        </mxCell>
        <mxCell id="c0HFAmHQshkEXfB8irg5-20" value="N" style="text;html=1;align=center;verticalAlign=middle;resizable=0;points=[];autosize=1;strokeColor=none;" vertex="1" parent="1">
          <mxGeometry x="530" y="1040" width="20" height="20" as="geometry" />
        </mxCell>
        <mxCell id="c0HFAmHQshkEXfB8irg5-24" value="" style="edgeStyle=orthogonalEdgeStyle;rounded=0;orthogonalLoop=1;jettySize=auto;html=1;" edge="1" parent="1" source="c0HFAmHQshkEXfB8irg5-21" target="c0HFAmHQshkEXfB8irg5-23">
          <mxGeometry relative="1" as="geometry" />
        </mxCell>
        <mxCell id="c0HFAmHQshkEXfB8irg5-21" value="经办人表、历史处理记录表增加记录" style="whiteSpace=wrap;html=1;fillColor=#d5e8d4;strokeColor=#82b366;" vertex="1" parent="1">
          <mxGeometry x="590" y="1200" width="120" height="60" as="geometry" />
        </mxCell>
        <mxCell id="c0HFAmHQshkEXfB8irg5-26" style="edgeStyle=orthogonalEdgeStyle;rounded=0;orthogonalLoop=1;jettySize=auto;html=1;entryX=0.5;entryY=1;entryDx=0;entryDy=0;" edge="1" parent="1" source="c0HFAmHQshkEXfB8irg5-23" target="c0HFAmHQshkEXfB8irg5-18">
          <mxGeometry relative="1" as="geometry" />
        </mxCell>
        <mxCell id="c0HFAmHQshkEXfB8irg5-23" value="添加子任务" style="whiteSpace=wrap;html=1;fillColor=#d5e8d4;strokeColor=#82b366;" vertex="1" parent="1">
          <mxGeometry x="590" y="1340" width="120" height="60" as="geometry" />
        </mxCell>
        <mxCell id="c0HFAmHQshkEXfB8irg5-25" value="&lt;div&gt;画外音：保证同一案件，一个流程只有一条经办人记录。&lt;/div&gt;&lt;div&gt;如果分配时，需要回查历史经办人，则需要把查询条件is_deleted = true去掉&lt;/div&gt;&lt;div&gt;&lt;br&gt;&lt;/div&gt;&lt;div&gt;目前这种实现并不优雅，因为按理来说is_deleted=true是一个删除了的数据，不应该再被查询出来了。&lt;/div&gt;&lt;div&gt;所以在20年12月份的风控流程大改版需求中预备作如下优化：经办人记录表增加一个type字段，用于标识该条记录状态，比如 已完成/未完成/未完成但被中转/被手动修改经办人...之类的状态&lt;br&gt;&lt;/div&gt;" style="shape=note;strokeWidth=2;fontSize=14;size=20;whiteSpace=wrap;html=1;fillColor=#fff2cc;strokeColor=#d6b656;fontColor=#666600;" vertex="1" parent="1">
          <mxGeometry x="-210" y="610" width="380" height="340" as="geometry" />
        </mxCell>
        <mxCell id="c0HFAmHQshkEXfB8irg5-30" style="edgeStyle=orthogonalEdgeStyle;rounded=0;orthogonalLoop=1;jettySize=auto;html=1;entryX=0.5;entryY=0;entryDx=0;entryDy=0;exitX=0.5;exitY=1;exitDx=0;exitDy=0;" edge="1" parent="1" source="c0HFAmHQshkEXfB8irg5-28" target="c0HFAmHQshkEXfB8irg5-8">
          <mxGeometry relative="1" as="geometry" />
        </mxCell>
        <mxCell id="c0HFAmHQshkEXfB8irg5-28" value="&lt;div&gt;com.dhco.ehuzhu.approve.admin.modules.service.impl.&lt;/div&gt;&lt;div&gt;DispatchCaseService#dispatchCaseFlowOperator()&lt;/div&gt;" style="rounded=0;whiteSpace=wrap;html=1;fillColor=#d5e8d4;strokeColor=#82b366;" vertex="1" parent="1">
          <mxGeometry x="485" y="510" width="330" height="80" as="geometry" />
        </mxCell>
        <mxCell id="c0HFAmHQshkEXfB8irg5-31" value="循环分配" style="rounded=0;whiteSpace=wrap;html=1;fillColor=#ffe6cc;strokeColor=#d79b00;" vertex="1" parent="1">
          <mxGeometry x="1210" y="250" width="120" height="60" as="geometry" />
        </mxCell>
        <mxCell id="c0HFAmHQshkEXfB8irg5-32" value="定制分配" style="rounded=0;whiteSpace=wrap;html=1;fillColor=#ffe6cc;strokeColor=#d79b00;" vertex="1" parent="1">
          <mxGeometry x="1210" y="320" width="120" height="60" as="geometry" />
        </mxCell>
        <mxCell id="c0HFAmHQshkEXfB8irg5-33" value="上限分配" style="rounded=0;whiteSpace=wrap;html=1;fillColor=#ffe6cc;strokeColor=#d79b00;" vertex="1" parent="1">
          <mxGeometry x="1350" y="320" width="120" height="60" as="geometry" />
        </mxCell>
        <mxCell id="c0HFAmHQshkEXfB8irg5-34" value="最近同角色分配" style="rounded=0;whiteSpace=wrap;html=1;fillColor=#ffe6cc;strokeColor=#d79b00;" vertex="1" parent="1">
          <mxGeometry x="1350" y="250" width="120" height="60" as="geometry" />
        </mxCell>
        <mxCell id="c0HFAmHQshkEXfB8irg5-35" value="指定流程经办人" style="rounded=0;whiteSpace=wrap;html=1;fillColor=#ffe6cc;strokeColor=#d79b00;" vertex="1" parent="1">
          <mxGeometry x="1210" y="390" width="120" height="60" as="geometry" />
        </mxCell>
        <mxCell id="c0HFAmHQshkEXfB8irg5-36" value="其他" style="rounded=0;whiteSpace=wrap;html=1;fillColor=#ffe6cc;strokeColor=#d79b00;" vertex="1" parent="1">
          <mxGeometry x="1210" y="470" width="120" height="60" as="geometry" />
        </mxCell>
        <mxCell id="c0HFAmHQshkEXfB8irg5-37" value="不分配" style="rounded=0;whiteSpace=wrap;html=1;fillColor=#ffe6cc;strokeColor=#d79b00;" vertex="1" parent="1">
          <mxGeometry x="1350" y="470" width="120" height="60" as="geometry" />
        </mxCell>
        <mxCell id="c0HFAmHQshkEXfB8irg5-38" value="比例分配" style="rounded=0;whiteSpace=wrap;html=1;fillColor=#ffe6cc;strokeColor=#d79b00;" vertex="1" parent="1">
          <mxGeometry x="1350" y="390" width="120" height="60" as="geometry" />
        </mxCell>
        <mxCell id="c0HFAmHQshkEXfB8irg5-40" value="&lt;b&gt;&lt;font style=&quot;font-size: 14px&quot;&gt;分配规则&lt;/font&gt;&lt;/b&gt;" style="text;html=1;align=center;verticalAlign=middle;resizable=0;points=[];autosize=1;strokeColor=none;" vertex="1" parent="1">
          <mxGeometry x="1300" y="140" width="70" height="20" as="geometry" />
        </mxCell>
      </root>
    </mxGraphModel>
  </diagram>
</mxfile>
